<svg xmlns="http://www.w3.org/2000/svg" xml:space="preserve" viewBox="823.61 815.73 3808.15 3869.22"><path style="fill:none;fill-rule:nonzero;stroke:none" d="M0 0h16300v16300H0V0" transform="matrix(.3272 0 0 -.3272 0 5333.333)"></path><path style="fill:#000;fill-opacity:0.4;fill-rule:nonzero;stroke:none" d="M10982.8 2805.64c-2936.71 0-5317.31 157.1-5317.31 350.91 0 86.72 476.07 166.05 1265.31 227.27 145.17-182.04 365.11-290.85 610.27-290.85h1569.59c294.71 0 554.75 159.18 690.52 405.84 380.02 5.71 775.42 8.71 1181.62 8.71 360.7 0 713.3-2.36 1053.9-6.87 137.6-250.57 399-407.68 691-407.68h2032.5c228.1 0 439.4 96.81 587 264.13 600.6-56.83 952.8-125.95 952.8-200.55 0-193.81-2380.6-350.91-5317.2-350.91" transform="matrix(.2311 0 0 -.2311 0 5333.333)"></path><path style="fill:#fc3c53;fill-opacity:1;fill-rule:nonzero;stroke:none" d="M13411.5 2755.24c-14.5-.95-29.1-1.9-43.9-2.85 0 0 456.6 434.05 535.3 1099.06 0 0-1025.8 1057.55-3888.6 100.56l-10.5 235.3-137.27 3060.67-55.05 1224.74 1194.62 474.13s1921.6 13.95 3612.6-2092.82C16300 4759.59 15925 2926.02 13411.5 2755.24" transform="matrix(.2945 0 0 -.2945 0 5333.333)"></path><path style="fill:#dd2645;fill-opacity:1;fill-rule:nonzero;stroke:none" d="M14603.3 3000.09c-15.7-1.04-31.7-2.08-47.7-3.11 0 0 497.1 472.63 582.8 1196.73l30.7 472.58s-1888.3 1064.61-4276.3-106.88l-149.5 3332.66 1048 1161.83s2242.6-34.86 3543.6-2085.6c965.1-1521.31 362.6-3258.26-731.6-3968.21" transform="matrix(.27046 0 0 -.27046 0 5333.333)"></path><path style="fill:#feb1ba;fill-opacity:1;fill-rule:nonzero;stroke:none" d="M16216.2 4509.38c5.4 701.81-352.9 1548.57-1069.2 2440.85-974.4 1213.94-2022.2 1752.74-2764.8 1991.9 25.9 38.2 50.3 76.54 73.5 115.03 71.7-23.05 146.2-48.97 223.2-78.06 645.8-243.97 1603.7-769.09 2499.5-1885.09 759.9-946.58 1121.6-1860.25 1037.8-2584.63" transform="matrix(.28238 0 0 -.28238 0 5333.333)"></path><path style="fill:#512717;fill-opacity:1;fill-rule:nonzero;stroke:none" d="M16084.7 4359.74c-5.5 0-11 .47-16.6 1.41-52.3 9.12-87.3 58.82-78.2 111.05 1.2 6.75 114.4 685.13-79.3 1516.13-258.4 1107.79-911 1948.22-1939.8 2498.05-46.7 24.99-64.4 83.18-39.4 129.96 25 46.72 83.2 64.42 130 39.39 1347.9-720.33 1852.2-1828.48 2037.9-2631.25 200.7-867.62 84.9-1556.26 79.9-1585.18-8.2-46.67-48.8-79.56-94.5-79.56" transform="matrix(.25455 0 0 -.25455 0 5333.333)"></path><path style="fill:#512717;fill-opacity:1;fill-rule:nonzero;stroke:none" d="M12589.7 4582.12c368.8 0 665.9-41.82 896.3-96.09 651.7-153.59 930.1-434.71 941.6-446.6 18-18.52 26.6-44.16 23.6-69.84-55.6-468.64-281.5-827.79-434.4-1023.3 996 99.37 1661.7 470.13 1931.6 1078.73 339.6 765.71 8 1860.49-909.7 3003.69-887.6 1105.74-1836.6 1626.02-2476.5 1867.75-625.4 236.3-1085.7 260.02-1173.6 262.36l-1161.9-461.05 201.8-4497.45c892.6 287.53 1607.7 381.8 2161.2 381.8m1223.1-1823.81c-34 0-65 20.17-78.6 51.61-14.4 33.02-6.6 71.53 19.5 96.37 4.3 4.12 430.4 417.63 521.4 1039.81-83.7 69.8-349.6 262.92-844.8 376.75-566.7 130.24-1556.8 180.35-3055.3-320.61-25.4-8.56-53.5-4.63-75.7 10.62-22.2 15.2-35.9 39.95-37.1 66.85l-209.7 4671.39c-1.6 36.54 20.1 70.08 54.1 83.56l1234.6 489.91c9.8 3.93 20.4 5.99 31 6.04 20.8.51 520.4.65 1241.9-270.41 662.2-248.75 1643.6-784.51 2558.4-1924.12 480.3-598.22 805.3-1179.69 966.2-1728.27 161.3-549.9 150-1038.55-33.5-1452.35-316.1-712.7-1107-1126.6-2287.3-1196.96-1.7-.09-3.4-.19-5.1-.19" transform="matrix(.285 0 0 -.285 0 5333.333)"></path><path style="fill:#f49a2b;fill-opacity:1;fill-rule:nonzero;stroke:none" d="M10999.6 11364.3c-3538.72-1554.09-4064.36-1582.36-5394.54 728-34.56 60-68.33 120.2-100.15 179.1-425.87 780.9-647.02 1472.7-711.07 2047.9 0 1.2-.39 2.7-.39 3.9-.78 7.8-1.59 15.3-2.38 22.8-.38 3.5-.77 7.1-1.16 11-.39 5.5-.78 8.2-.78 8.2-100.97 1028.5 307.21 1674 941.64 1773.7 1022.2 161.1 1157.73-865.4 1157.73-865.4 606.93-169.7 354.73-1024.5 354.73-1024.5 214.88-326.9 522.88-765.7 522.88-765.7 576.7 433.7 1195.85 584.1 1716.3 614 701.29 40.5 1224.09-137.8 1224.09-137.8l293.1-2595.2" transform="matrix(.1778 0 0 -.1778 0 5333.333)"></path><path style="fill:#fc3c53;fill-opacity:1;fill-rule:nonzero;stroke:none" d="M7765.96 13483.2s-367.37-169.1-504.1-615.9c0 0-68.56-37.8-186.59-94.3l-.79-.4c-1885.83-559.4-2225.13 1139.5-2277.33 1518.9 0 1.5-.39 3.5-.39 5.1-126.22 1068.1 285.15 1740.5 933.76 1842.2 1022.19 161.2 1157.76-865.6 1157.76-865.6 606.93-169.5 354.88-1024.6 354.88-1024.6 215.04-326.8 522.8-765.4 522.8-765.4" transform="matrix(.1778 0 0 -.1778 0 5333.333)"></path><path style="fill:#dd2645;fill-opacity:1;fill-rule:nonzero;stroke:none" d="M8068.73 14567.7c-344.77-165.3-1059.21-472.7-1790.09-571.9-60.87 111.6-117.74 221.3-171.06 329.3-27.1 54.2-52.87 108-77.75 160.8-12.44 26.7-24.88 53.3-36.87 79.6-12 26.6-24 52.8-35.55 79.1-58.21 130.6-111.08 259-158.61 384.7-9.78 24.9-19.12 49.8-27.99 74.7-11.56 31.5-23.12 63-34.22 94.2-6.22 18.2-11.99 36-18.21 53.7-47.99 141.3-89.75 279.1-124.41 412.8-4.44 16.4-8.44 32.9-12.89 49.3-5.77 23.5-11.55 46.6-16.88 69.7-3.55 15.6-7.11 31.2-10.66 46.3-6.21 27-12 54.1-17.77 81.3-11.11 53.8-21.33 106.6-30.66 158.6-.89 3.1-1.33 6.2-1.77 9.8-4.01 23.1-7.56 45.7-11.12 68.4-4 25.7-7.55 51.1-11.11 76.4-3.54 25.3-7.1 50.6-9.76 75.5 59.53-432.7 446.52-2370.4 2597.38-1732.3" transform="matrix(.15589 0 0 -.15589 0 5333.333)"></path><path style="fill:#ee7c2f;fill-opacity:1;fill-rule:nonzero;stroke:none" d="M5466.86 16293.8c0-1.8.44-4.1.44-5.9-.9 4.1-1.34 8.1-1.78 12.1.44-2.2.88-4 1.34-6.2" transform="matrix(.156 0 0 -.156 0 5333.333)"></path><path style="fill:#ee7c2f;fill-opacity:1;fill-rule:nonzero;stroke:none" d="M12682.1 13102.7c-4079.99-1792.2-4686.33-1824.5-6219.68 838.9-39.98 69.2-79.06 138.8-115.43 206.6 738.83 100.2 1461.05 410.9 1809.57 578.1l.91.4c47.16 13.9 94.76 28.7 143.72 45.4 0 0-165.29-351.3-111.38-773.9 53.44-422.1 860.58-1089.6 2092.09-787.8 1066.3 260.5 1210.9 1839.7 650.8 3042.9 808.4 46.7 1411.2-159 1411.2-159l338.2-2991.6" transform="matrix(.1542 0 0 -.1542 0 5333.333)"></path><path style="fill:#dd2645;fill-opacity:1;fill-rule:nonzero;stroke:none" d="M5650.76 16159.7s-187.03-777.2 749.38-735.5c0 0 629.35-363.9 1012.27 159.3 0 0-875.78 242.7-712.76 716.5 0 0-456.2-382.9-1048.89-140.3" transform="matrix(.16416 0 0 -.16416 0 5333.333)"></path><path style="fill:#feb1ba;fill-opacity:1;fill-rule:nonzero;stroke:none" d="M5131.58 13991.6c-186.8 698.2-183.38 1306.7 26.22 1745 148.29 310 388.82 499.5 695.56 547.8 66.15 10.4 129.51 15.6 190.04 15.6 174.55 0 325.41-43.2 450.3-129.3-75.25 18.8-158.23 29.3-249.76 29.3-66.29 0-137.07-5.5-212.62-17.4-721.85-113.4-1155.27-920.8-899.74-2191" transform="matrix(.17472 0 0 -.17472 0 5333.333)"></path><path style="fill:#512717;fill-opacity:1;fill-rule:nonzero;stroke:none" d="m9370.16 15975-16.5-12.1c-6.27-4.4-12.81-9.7-19.44-15.1-13.18-10.6-26.53-20.9-39.79-32.3-26.98-21.7-52.61-46-79.14-69.1-51.35-48.4-101.8-98.6-149.12-152-94.91-106.3-181.21-222.1-252.39-347.8-19.37-30.6-35.43-63-51.81-95.3-15.6-32.6-35.34-63.9-47.86-98-27.66-67.5-57.17-134.8-79.05-205.4-27.79-69.3-45.48-141.5-69.26-214.2-14.39-36.1-19.79-73.5-31.38-110.8-9.92-37.5-21.65-75.3-34.83-113.7l-.32-.9c-2.05-6.1-8.57-9.2-14.57-7.2-3.78 1.2-6.47 4.5-7.4 8.1-9.69 38.8-17.93 78.3-24.4 118.1-6.61 39.8-14.02 80.1-14.62 120.2-1.95 80.4-4.89 162.5 7.69 243.1 6.14 40 8.93 81.4 18.15 121.1l29.23 119.5c8.57 40.3 24.59 78.2 36.78 117.7l19.74 58.8c6.7 19.6 16.06 38 24.03 57.1 62.56 153.3 147.61 297.9 249.28 430 24.77 33.6 52.98 64.6 79.46 96.9 27.47 31.6 57.08 61.4 86.28 91.5 30.47 29.2 60.85 58.4 93.92 85.5 15.86 14 32.89 27.5 50.36 40.5 8.52 6.6 17.21 13.3 26.8 19.9 9.32 6.6 17.83 12.8 30.83 21.3 75.9 49.6 177.53 28.3 227.18-47.5 47.77-73.2 29.75-170.1-39.43-221.5l-8.42-6.4" transform="matrix(.14878 0 0 -.14878 0 5333.333)"></path><path style="fill:#512717;fill-opacity:1;fill-rule:nonzero;stroke:none" d="M6839.18 15247c-78.71 0-143.98 62.3-147.02 141.6-3.09 81.2 60.23 149.6 141.48 152.7 1350.3 51.6 2167.33 701.1 2175.44 707.7 63.16 51 155.8 41.4 206.98-21.5 51.23-63 41.82-155.6-21.09-206.9-35.93-29.2-896.23-717.9-2350.07-773.5-1.92 0-3.82-.1-5.72-.1" transform="matrix(.14235 0 0 -.14235 0 5333.333)"></path><path style="fill:#512717;fill-opacity:1;fill-rule:nonzero;stroke:none" d="M6594.45 15790.1c-29.98-11.8-50.52-18.5-75.69-25.5-24.08-6.7-48.27-12.5-72.77-16.7-48.77-9.6-98.66-13.8-149.22-15.5-100.96-2-206.68 13.4-307.37 54.3-99.63 41.3-195.19 110.4-251.92 202.7-28.15 45.7-48.6 94.6-57.2 145-10.45 49.6-9.73 100.2-.51 149.1 1.88 10 11.53 16.5 21.52 14.6 3.83-.7 7.15-2.5 9.7-5.1l.42-.5c67.96-68.8 124.77-124.6 183.92-162.9 57.96-38.7 115.46-64.2 180.95-76.3 64.97-12.2 134.93-13.5 207.39-8.6 36.24 2.1 72.94 7.5 109.76 12.5l105.08 17.4 16.03 2.7c81.65 13.5 158.83-41.6 172.44-123.3 11.78-70.8-28.32-138.3-92.53-163.9" transform="matrix(.16287 0 0 -.16287 0 5333.333)"></path><path style="fill:#512717;fill-opacity:1;fill-rule:nonzero;stroke:none" d="M7297.27 16005.8c-172.23-29.9-356.36-71.6-514.54-133.2-78.35-32.1-153.44-68.2-206.79-113.2-26.4-22.3-49.26-44.5-63.27-67.2-14.41-22.7-22.53-44.8-25.45-70.8l-1.41-9.6c-.2-3.8.34-8.8.42-13.2l.78-27.2c-1.2-19.1 3.05-34.2 4.94-50.8 4.41-33.1 16.61-58.8 29.71-84.2 30.39-46.6 88.93-83.5 165.63-110.6 76.45-26.8 166-43.1 258.15-56.8 92.64-15 188.79-24.6 287.69-42.4 6.72-1.2 11.2-7.6 10.05-14.3-.7-4.1-3.5-7.4-7.05-9.1-91.77-42-187.21-70.3-286.77-90.4-99.61-18.2-203.9-26.9-314.88-9.8-27.81 5.2-55.65 8.6-84.03 19l-42.47 13.8c-14.13 5.6-28.26 12.8-42.27 19.6-56.55 26.2-109.36 70.2-154.18 120.9-18.53 27.6-40.86 55.1-54.21 85.1-12.97 29.8-29.16 60.7-35.25 90.9-7.79 30.4-17.31 61.8-18.96 90.9l-4.32 44.8c-.62 7.7-1.57 14.6-1.77 22.7l.61 26.4c1.65 70.1 21.71 142.4 54.87 203.2 32.92 61.6 76.45 111.1 122.43 151.5 92.64 80.9 191.63 132.8 290.85 173 99.32 39.5 199.04 68.5 299.35 89.3 101.21 21.6 198.22 35 305.56 41.2 80.16 4.7 148.96-56.4 153.61-136.6 4.37-74.6-48.31-139.4-120.28-151.8l-6.75-1.1" transform="matrix(.16814 0 0 -.16814 0 5333.333)"></path><path style="fill:#512717;fill-opacity:1;fill-rule:nonzero;stroke:none" d="M5928.77 15990.8c-59.39 0-121.54-5.1-186.43-15.3-300.93-47.4-536.89-233.2-682.38-537.4-353.62-739.5-109.07-1972.5 654.17-3298.2C6961.21 9974.05 7355.01 9906 10833 11429.6l-271.2 2399.3c-333.5 88.3-1621.92 351.9-2726.83-478.7-29.72-22.3-67.22-31.7-103.91-25.9-36.75 5.9-69.47 26.3-90.88 56.7-3.07 4.4-311.2 443.5-524.22 767.7-22.15 33.7-28.34 75.5-16.95 114.1 1.14 4 118.69 416.3-23.99 673-50.11 90.3-127.15 148.9-235.48 179.2-52.89 14.8-91.87 59.7-99.04 114.2-.52 3.6-58.71 404.1-350.32 620.7-126.24 93.8-280.93 140.9-461.41 140.9m1743.53-5878.9c-78.39 0-153.92 4.4-227.22 13.1-805.07 95.1-1294.69 707.1-1968.84 1877.9-820.44 1425-1062.43 2720.3-663.92 3553.6 183.56 383.9 498.67 629 887.31 690.2 338.77 53.3 626.94-6.6 856.47-178 293.14-219.1 403.08-559.1 439.98-717.5 139.63-56.9 246.85-151.8 319.45-283 159.03-287.3 96.89-668.8 62.99-818.9 139.56-210.6 309.35-456.5 406.97-596.8 1364.68 935.7 2881.11 435 2946.81 412.5 50.2-17.1 86.1-61.7 92-114.4l292.8-2590.6c6.7-59.8-26.2-116.9-81.2-141.1-1697.44-745.5-2649.33-1107-3363.6-1107" transform="matrix(.1781 0 0 -.1781 0 5333.333)"></path><path style="fill:#f49a2b;fill-opacity:1;fill-rule:nonzero;stroke:none" d="M15452.1 3348.61h-2127.9c-293.6 0-557.5 179.69-665.4 453.07l-580 1470.36v.3l-365.5 925.78c-582.4-270.54-990.9-127.81-990.9-127.81l-167.4-743.85-319.2-1419.38c-73.5-326.29-363.33-558.47-698.07-558.47H7894.62c-582.81 0-888.14 647.38-604.32 1084.33 40.53 62.94 93.32 121.77 159.76 173.35 272.78 212.62 578.41 291.14 578.41 291.14l135.12 620.45 277.18 1274.53c-1130.23 2601.14 272.72 4435.69 272.72 4435.69l5097.61 132.6c1199.9-1424.86 843.3-3400.78 679.1-4056.75-38-150.88-31.1-309.74 20.9-456.51l378.7-1077.69 293.6-834.69c501.8-51.22 768.6-293.31 906.8-573.03 6.7-13.59 13-27.48 18.7-41.44 191.1-457.24-151.3-971.98-656.8-971.98" transform="matrix(.22074 0 0 -.22074 0 5333.333)"></path><path style="fill:#fc3c53;fill-opacity:1;fill-rule:nonzero;stroke:none" d="M11960.2 7120c8.3 25.5 18.7 50.4 30.6 74.8-11.4-24.4-21.8-49.3-30.6-74.8m49.8 115.4c17.2 35.3 36.9 70.1 59.8 103.9-21.8-33.8-42.1-68.6-59.8-103.9M15964.1 8653c-265.9-1212.5-837.3-2224.9-1936.5-2224.9-1666.4 0-1949.5 883.1-1957.8 911.2 67 104.4 154.8 201 264.4 286.7 451.4 352.2 957.9 482.1 957.9 482.1l223.3 1027.4c32.2-14.5 1053-467 2448.7-482.5" transform="matrix(.13333 0 0 -.13333 0 5333.333)"></path><path style="fill:#fc3c53;fill-opacity:1;fill-rule:nonzero;stroke:none" d="M16281.3 4413.9c7-14 13-27.99 18.7-41.93-178.1-217.46-557.5-511.8-1306.5-511.8-1187.6 0-1467.4 182.56-1467.4 182.56l-776.2 1687.72c545.2 332.73 1437.9 671.81 2316.7 107.63l296.8-844.47c508-51.77 777.9-296.85 917.9-579.71" transform="matrix(.21816 0 0 -.21816 0 5333.333)"></path><path style="fill:#fc3c53;fill-opacity:1;fill-rule:nonzero;stroke:none" d="M16300 4262.51c-5.7 22.5-12.7 44.7-20.6 67.15 8.2-22.14 15.2-44.65 20.6-67.15" transform="matrix(.2186 0 0 -.2186 0 5333.333)"></path><path style="fill:#fc3c53;fill-opacity:1;fill-rule:nonzero;stroke:none" d="M16283.5 3888.99c6.4 21.83 12 43.71 16.5 65.84-4.5-22.13-9.8-44.32-16.5-65.84" transform="matrix(.2187 0 0 -.2187 0 5333.333)"></path><path style="fill:#fc3c53;fill-opacity:1;fill-rule:nonzero;stroke:none" d="M16300 4191.93c-3.5 22.19-7.9 44.61-13.3 67.1 5.7-22.49 10.1-44.61 13.3-67.1" transform="matrix(.21879 0 0 -.21879 0 5333.333)"></path><path style="fill:#fc3c53;fill-opacity:1;fill-rule:nonzero;stroke:none" d="M16282.3 3950.53c13.6 66.75 17.3 135.45 10.7 205 7-69.55 2.9-138.55-10.7-205" transform="matrix(.21893 0 0 -.21893 0 5333.333)"></path><path style="fill:#dd2645;fill-opacity:1;fill-rule:nonzero;stroke:none" d="m16300 8225.32-493.2-2191.46c-113.4-503.98-560.6-862.54-1077.7-862.54h-2537.4c-173.5 0-331.5 37.31-469.6 102.23-22.3 10.17-43.6 21.36-64.4 32.92-354.7 197.29-565.5 583.46-565.5 974.48 0 16.98.5 33.86 1.5 51.3.5 11.66 1.4 23.32 2.4 35.44 1.4 19.32 3.4 38.25 6.3 57.65 3.4 24.16 7.7 48.88 12.6 73.6 1.9 10.17 4.4 19.87 6.8 30.03.9 3.92 1.9 7.75 2.9 11.66 2.4 10.17 5.3 20.34 8.2 30.04 3.9 13.06 7.8 25.65 11.6 38.8 4 10.64 7.3 21.27 11.7 31.9 8.2 23.79 17.9 47.01 28.5 69.78 4.9 11.19 9.7 21.82 15.1 32.55 1 1.86 1.9 3.36 2.9 5.32 16.5 32.93 35.4 65.38 55.7 96.91 7.8-26.21 271.8-849.94 1826.2-849.94 1025.3 0 1558.3 944.43 1806.3 2075.33 437.6-4.85 914.4 35.82 1409.1 154" transform="matrix(.14294 0 0 -.14294 0 5333.333)"></path><path style="fill:#ee7c2f;fill-opacity:1;fill-rule:nonzero;stroke:none" d="m16300 9228-254.3-1130.98c-486.9-116.34-956.3-156.38-1387-151.6 132.1 601.9 182.2 1257.23 182.2 1848.76 4.3-4.32 9-8.63 13.8-13.41 78.2-74.83 504.7-439.74 1445.3-552.77" transform="matrix(.1452 0 0 -.1452 0 5333.333)"></path><path style="fill:#dd2645;fill-opacity:1;fill-rule:nonzero;stroke:none" d="M16282.6 3950.62c-4.4-22.11-10.1-43.97-16.4-65.77-37-120.53-105.7-230.03-197.8-316.39-16.7-15.47-34.1-30.33-52.5-44.58-18.3-14.25-37.3-27.23-56.9-39.53a658.314 658.314 0 0 0-61.1-34.16c-94.6-46.84-201.8-73.76-317.6-73.76h-2145.6c-296.1 0-562.1 181.31-670.9 456.83l-584.7 1482.49v.31s200.9 196.16 525.8 394.16l773.5-1681.76s278.7-181.92 1462.2-181.92c746.3 0 1124.4 293.31 1301.8 510 4.8-11.09 8.9-22.17 13-33.25 7.9-22.42 14.9-44.59 20.6-67.06 5.4-22.47 9.8-44.89 13.3-67.05 1.6-11.39 2.8-22.48 4.1-33.56 6.6-69.55 2.8-138.25-10.8-205" transform="matrix(.21893 0 0 -.21893 0 5333.333)"></path><path style="fill:#ee7c2f;fill-opacity:1;fill-rule:nonzero;stroke:none" d="m15670.9 8693.91 629.1-1367.86c-416.8-254.02-674.6-505.69-674.6-505.69l-472.8 1197.75c-753.7-350.29-1282.2-165.57-1282.2-165.57s-954.2 231.75-1222.5 463.89c-6.9 6.1-13.4 12.19-19.1 17.89 0 0 1768.4-81.57 2622.8 477.73 147.8 96.57 345.9 42.19 419.3-118.14" transform="matrix(.17064 0 0 -.17064 0 5333.333)"></path><path style="fill:#fbd7aa;fill-opacity:1;fill-rule:nonzero;stroke:none" d="M13541.7 8747.18c-87.1 28.32-161 54.5-220.3 76.59l453.1 2082.43c8 36.6 4.2 74.8-10.7 109-916.8 2110.9-755.3 3890.9-458.4 5012.6 24.8 93.7 50.9 184.4 78.1 272.2 52.8-55.9 106.3-110.6 160.3-164-336.6-1262.6-445-3047.5 464.5-5140.6l-466.6-2248.22" transform="matrix(.137 0 0 -.137 0 5333.333)"></path><path style="fill:#feb1ba;fill-opacity:1;fill-rule:nonzero;stroke:none" d="M13500.6 8021.8c-15 0-30.1 1.3-45.2 4 6.8 13.6 12.1 28.2 15.4 43.5l216.9 997.1c60.9-22.7 136.9-49.6 226.4-78.7l-157.2-757.6c-26.5-127.8-138.4-208.3-256.3-208.3" transform="matrix(.13333 0 0 -.13333 0 5333.333)"></path><path style="fill:#512717;fill-opacity:1;fill-rule:nonzero;stroke:none" d="M16161.9 5139.91c-30.9 3.21-67.9 5.79-102.5 7.97-35.4 2.26-71 3.48-106.7 4.19-71.3 1.61-143 1.67-214.7-.77-143.2-6.05-286.6-18.54-428.4-42.67-142.1-22.9-281.4-59.77-418.7-104.88l-102.7-35.96c-33.6-13.26-66.4-28.7-99.9-43.05l-50.4-21.62c-16.3-7.98-32.3-16.79-48.5-25.09-32.3-17.06-64.9-34.04-98.1-50.64l-1.4-.71c-9.3-4.63-20.7-.84-25.4 8.49-4 7.98-1.9 17.38 4.7 22.91 114 97.42 239.3 186.15 376 253.64 136.3 67.5 279.4 124.77 427.3 162.98 147.3 39.83 297.7 70.65 450 86.74 76 7.79 152.4 14.8 229.2 16.79 38.4 1.16 76.9 1.74 115.6 1.29 39.2-.26 76.2-1.61 119.1-4.95 65-5.02 113.6-61.77 108.5-126.76-4.9-64.92-61.7-113.57-126.7-108.55-.8.07-1.6.13-2.6.26l-3.7.39" transform="matrix(.20722 0 0 -.20722 0 5333.333)"></path><path style="fill:#512717;fill-opacity:1;fill-rule:nonzero;stroke:none" d="M16092.2 8961.11c-72.9 12.35-135.6 28.61-201.8 45.86-65.3 16.7-129.4 37.41-193.2 58.11-127.4 42.68-251.8 93.52-373.4 149.82-121.3 57.02-240.2 119.31-352.6 192.68-112.9 71.64-217.8 157.62-311.6 253.51-11.2 11.53-11.1 30.05.6 41.4 8 7.99 19.7 10.26 29.7 6.81l1.2-.45c125.8-42.5 243.4-90.98 364.6-131.66 119.9-42.4 239-84.44 360.7-118.59 121-35.86 242.9-67.73 365.4-95.43 61-14.25 122.5-26.87 183.4-39.95 60.1-12.53 124.3-23.61 179.3-33.32l4.5-.82c90.5-15.89 151-102.24 135-192.77-15.9-90.16-101.7-150.54-191.8-135.2" transform="matrix(.14684 0 0 -.14684 0 5333.333)"></path><path style="fill:#512717;fill-opacity:1;fill-rule:nonzero;stroke:none" d="M14804.1 7845.2c-1344.7 0-2327.2 436.6-2380.9 460.89-73 33.07-105.4 119.15-72.2 192.12 33.1 73.06 119.1 105.3 192 72.32 16.4-7.39 1665.3-737.24 3563.5-284.29 78.1 18.56 156.3-29.56 174.8-107.51 18.7-77.96-29.4-156.28-107.4-174.85-480.9-114.81-943.7-158.68-1369.8-158.68" transform="matrix(.14436 0 0 -.14436 0 5333.333)"></path><path style="fill:#512717;fill-opacity:1;fill-rule:nonzero;stroke:none" d="M13127.2 5626.74c-26.9 0-53.6 10.38-73.9 31.12-39.7 40.77-39 106.15 1.9 145.86 16.3 15.96 406.8 393.09 992.2 653.76 786 350.02 1543.6 315.36 2190.7-100.18 48-30.78 61.9-94.65 31.1-142.58-30.8-47.92-94.6-61.83-142.6-31.04-1422.4 913.38-2912.5-513.15-2927.4-527.66-20-19.56-46-29.28-72-29.28" transform="matrix(.20311 0 0 -.20311 0 5333.333)"></path><path style="fill:#512717;fill-opacity:1;fill-rule:nonzero;stroke:none" d="M11703.6 6303.76c14 0 27.9-2.65 41.1-7.91 28.3-11.34 50.7-33.79 61.9-62.16l944.6-2394.62c91.6-232.35 312.3-382.51 562-382.51h2126.1c208.4 0 398.7 106.04 509 283.6 108.3 174.11 119.2 386.91 29.2 569.23-147.5 298.92-422.8 471.04-818.2 511.6-42.6 4.34-78.9 32.95-93.1 73.32l-671.8 1910.73c-58.8 167.23-67 347.02-23.8 519.81 142.5 568.81 514.6 2518.76-621.9 3914.45l-4984.17-129.6c-87.51-128.6-348.35-546-513.71-1170.73-184.14-695.55-284.26-1799.38 284.25-3108.34 9.24-21.24 11.59-44.9 6.64-67.59l-411.9-1893.11c-8.93-40.85-40.07-73.26-80.57-83.64-2.71-.73-287.57-76.29-537.18-270.92-241.29-188.12-256.86-459.94-190.96-651.68 85.04-247.32 307.56-407.13 566.89-407.13h1641.79c284.62 0 527.02 193.97 589.52 471.65l486 2161.49c6.9 30.77 26.7 57.15 54.3 72.42 27.6 15.39 60.4 18.16 90.2 7.72 3.1-1.02 378-122.27 907.2 123.6 14.8 6.82 30.7 10.32 46.6 10.32m3735.7-3068.5h-2126.1c-341.2 0-642.6 205.13-767.9 522.64l-902.7 2288.4c-383.2-152.63-687.1-138.87-845.7-113.22l-461.7-2053.39c-85.4-379.43-416.51-644.43-805.42-644.43H7887.99c-355.29 0-659.95 218.47-776.12 556.5-114.01 331.63-10.32 684.14 264.09 898.14 212.26 165.43 440.99 254.15 551.44 290.6l390.53 1794.91c-580.04 1357.6-472.25 2504.88-278.28 3230.59 212.49 795.3 563.86 1260.6 578.71 1280.1 20.34 26.5 51.6 42.5 85.03 43.4l5093.31 132.4c33.5.9 65.9-13.6 87.6-39.3 530.7-630.3 825.4-1431.07 876.1-2380.21 41.1-768.82-92.1-1439.81-175.1-1771.32-32.7-130.6-26.5-266.39 17.9-392.64l649-1845.85c438.9-62.04 749.5-272.12 923.8-625.24 124-251.42 109.2-544.49-39.7-784.02-151-242.98-411.6-388.06-697-388.06" transform="matrix(.22093 0 0 -.22093 0 5333.333)"></path><path style="fill:#f49a2b;fill-opacity:1;fill-rule:nonzero;stroke:none" d="M15397.5 7479.1v-.28c-256.6-234.25-495.8-368.78-495.8-368.78s462.1-606.57-273-1120.35c-460.7-321.57-1250.1-95.4-1483.4 531.38-159.9 429.04-59.1 1046.31 586.5 1803.53 0 0-801.1 221.09-801.1 1355.46l305 1032.24s1521.5-121.7 2382.3-1152.82l.3-.57c62.9-74.89 122-154.57 176.6-239.26 505.1-782.9 29.8-1450.35-397.4-1840.55" transform="matrix(.2341 0 0 -.2341 0 5333.333)"></path><path style="fill:#fc3c53;fill-opacity:1;fill-rule:nonzero;stroke:none" d="M16213.7 7002.18c28.3-11.91 57.3-22.74 86.3-32.5-29 9.76-57.7 20.25-86.3 32.5" transform="matrix(.19819 0 0 -.19819 0 5333.333)"></path><path style="fill:#fc3c53;fill-opacity:1;fill-rule:nonzero;stroke:none" d="M16211.9 6899.95c29.1-8.67 58.6-16.28 88.1-22.89-29.5 6.27-59 13.88-88.1 22.89" transform="matrix(.1998 0 0 -.1998 0 5333.333)"></path><path style="fill:#fc3c53;fill-opacity:1;fill-rule:nonzero;stroke:none" d="M16212 6812.58c29.6-5.1 58.8-9.6 88-13.04-29.2 3.11-58.8 7.54-88 13.04" transform="matrix(.20143 0 0 -.20143 0 5333.333)"></path><path style="fill:#fc3c53;fill-opacity:1;fill-rule:nonzero;stroke:none" d="M16212.4 6763.01c29.5-3.09 58.5-5.13 87.6-6.52-29.1 1.06-58.5 3.1-87.6 6.52" transform="matrix(.20251 0 0 -.20251 0 5333.333)"></path><path style="fill:#fc3c53;fill-opacity:1;fill-rule:nonzero;stroke:none" d="M16300 6708.67c-39.7-2.68-79.4-3.4-119.5-1.7 40.1-1.31 80.2-.65 119.5 1.7" transform="matrix(.20401 0 0 -.20401 0 5333.333)"></path><path style="fill:#fc3c53;fill-opacity:1;fill-rule:nonzero;stroke:none" d="M16082.2 6619.05c74.5 5.03 147.4 17.79 217.8 38.24-70.4-20.83-143.3-33.21-217.8-38.24" transform="matrix(.20677 0 0 -.20677 0 5333.333)"></path><path style="fill:#fc3c53;fill-opacity:1;fill-rule:nonzero;stroke:none" d="M16235 6625.17c22.2 9.25 43.7 19.53 65 30.82-21.3-11.29-42.8-21.25-65-30.82" transform="matrix(.20891 0 0 -.20891 0 5333.333)"></path><path style="fill:#fc3c53;fill-opacity:1;fill-rule:nonzero;stroke:none" d="M16300 8400.4c-7.6-6.02-15.2-11.68-23.1-17.7-1005.4-755.18-1044.9-1353.6-544.4-1467.05 0 0-619.9-955.18-1693.3 48.97-170.6 458.46-62.9 1117.28 626.5 1926.17l256.6 317.59s901.8 239.48 1377.7-807.98" transform="matrix(.2192 0 0 -.2192 0 5333.333)"></path><path style="fill:#ee7c2f;fill-opacity:1;fill-rule:nonzero;stroke:none" d="M12088.2 8985.33s-217.7 411.91 441.3 611.88c659 200.1 1839 950.99 2194.6 1359.09 0 0 37-141.2 27.1-314.4-5.5-95.4 75.5-172.9 170.1-159.7 308.4 42.7 917.3 211.6 1378.7 870.4l-256.7 173-1044.6 158.4s-996.3-1074.8-2549.6-1702.35c0 0-855.1-392.25-360.9-996.32" transform="matrix(.21157 0 0 -.21157 0 5333.333)"></path><path style="fill:#ee7c2f;fill-opacity:1;fill-rule:nonzero;stroke:none" d="M14353 10744.7s242.6-1101.68 1947-578.4c0 0-792.1-420.99-1435.5-1453.87 0 0-904.9 747.76-511.5 2032.27" transform="matrix(.2109 0 0 -.2109 0 5333.333)"></path><path style="fill:#dd2645;fill-opacity:1;fill-rule:nonzero;stroke:none" d="M16300 7917.15c-271.6-248.04-524.9-390.57-524.9-390.57s489.2-642.06-289.1-1185.72c-27.9-19.41-57.3-37.26-87.4-52.94-20.1-10.67-40.4-20.07-61.4-29.12-10.3-4.4-20.9-8.5-31.6-12.54-21.3-8.14-42.9-15.38-64.8-21.58-65.8-19.12-134.1-31.06-203.6-35.76-36.3-2.17-73.3-2.77-110.2-1.57-26.7 1.27-53.3 3.14-80.2 5.97-26.7 3.14-53.3 7.18-80.2 11.88-.6.36-1.3.36-2.2.36-12.5 2.47-25.1 5.01-37.6 7.78-26.6 5.97-53.3 12.84-79.5 20.68-12.9 3.8-26 7.84-39.2 12.24-26 8.74-51.9 18.45-77.3 29.12-12.9 5.31-25.4 10.97-38.3 16.58-12.5 5.97-25 11.94-37.5 18.21-11 5.61-22.3 11.28-33.2 17.18-1.3.67-2.6 1.57-3.8 2.23-12.2 6.58-24.1 13.45-36.3 20.69-9.4 5.6-19.1 11.57-28.5 17.48-2.2 1.57-4.8 3.13-7.2 4.7-11.6 7.54-23.2 15.38-34.8 23.52-11.6 7.84-22.9 16.27-34.1 24.72-11 8.13-21.6 16.64-32 24.78l-1.2 1.2c-10.1 8.14-20.1 16.64-29.8 25.08-23.1 20.69-45.7 42.27-67.9 64.82-8.5 9.1-17.3 18.51-25.7 27.91-7.6 8.44-14.7 16.89-22 25.33-11.2 13.5-22.5 27.25-33.5 41.66-7.8 10.37-15.3 20.98-22.8 31.65-.9 1.27-1.9 2.48-2.8 4.04-7.2 10.37-14.1 20.68-21.1 31.05-2.1 3.74-4.6 7.18-6.8 10.98-6.6 10.31-12.9 20.62-18.8 31.29-7.5 12.54-14.8 25.68-21.6 38.83-.6.96-1 1.87-1.6 2.83-6.3 11.88-12.2 24.12-17.8 36.3-6.9 13.8-13.2 27.91-19.2 42.32-5.6 13.15-10.9 26.59-15.9 40.1-.3.9-.6 1.57-.9 2.47 1063.9-995.31 1678.3-48.54 1678.3-48.54-496.1 112.45-456.9 705.61 539.7 1454.14 7.8 5.97 15.3 11.58 22.9 17.55 54.1-119.02 102.3-254.32 143.4-409.03v-.3" transform="matrix(.22114 0 0 -.22114 0 5333.333)"></path><path style="fill:#ee7c2f;fill-opacity:1;fill-rule:nonzero;stroke:none" d="M15397.7 7479.16c-38.8 146.14-84.4 273.95-135.5 386.38 846.1 656.23 420.6 1567.74 356.2 1693.5 63-74.84 122.1-154.75 176.6-239.38 505-782.79 29.9-1450.25-397.3-1840.5" transform="matrix(.2341 0 0 -.2341 0 5333.333)"></path><path style="fill:#fbd7aa;fill-opacity:1;fill-rule:nonzero;stroke:none" d="M15924.9 8391.06c-28.7 334.13 45 742.33 362.5 1182.85 5.3-4.79 9.5-8.54 12.6-11.24-270.5-443.77-378.9-837.2-375.1-1171.61" transform="matrix(.19226 0 0 -.19226 0 5333.333)"></path><path style="fill:#fbd7aa;fill-opacity:1;fill-rule:nonzero;stroke:none" d="M14517 7648.83v.38c-3.4 304.84 95.4 663.48 341.9 1068.02l.1-.06c-246.7-404.73-345.4-763.43-342-1068.34m1094.9 1938.87c342.7 344.99 548.1 492.9 636.6 548.8 31.5 19 49.5 28.8 51.3 29.7.1.1.2.1.2.1s-220.4-227.73-498-572.85c-20.4 1.01-40.1 1.39-58.8 1.39-50.7 0-95.2-3.1-131.3-7.14" transform="matrix(.2109 0 0 -.2109 0 5333.333)"></path><path style="fill:#feb1ba;fill-opacity:1;fill-rule:nonzero;stroke:none" d="M15182.8 7350.47c-31.3 25.89-63.1 53.34-95.2 82.36-52.2 125.86-97.8 280.48-113 457.07-3.6 314.52 98.2 684.53 352.7 1102.02 3.7-3.26 5.7-4.89 5.7-4.89 46.3 74.4 93.5 145.74 141 214.02 246.2 287.85 455.4 513.15 630 688.83 37.2 4.18 83.1 7.37 135.4 7.37 19.3 0 39.6-.39 60.6-1.43-540.6-672.21-1291.3-1776.05-1117.2-2545.35" transform="matrix(.20446 0 0 -.20446 0 5333.333)"></path><path style="fill:#f8cbac;fill-opacity:1;fill-rule:nonzero;stroke:none" d="M14864.7 8712.53s-1.9 1.58-5.5 4.74l-.1.06c-2.9 2.47-6.7 5.89-11.5 10.25 36.2 50.32 75.9 101.02 119.4 152.17 11.6 13.59 23 26.99 34.3 40.27-46-66.19-91.7-135.35-136.6-207.49m1384 1424.07c32.8 20.8 49.5 28.9 51.3 29.7-1.8-.9-19.8-10.6-51.3-29.7" transform="matrix(.2109 0 0 -.2109 0 5333.333)"></path><path style="fill:#f1a8b5;fill-opacity:1;fill-rule:nonzero;stroke:none" d="M16300 7537.84s-123.1 141.62-223.1 382.4c34.2-30.92 68.1-60.18 101.5-87.77 23.6-104.51 63.4-203.39 121.6-294.63" transform="matrix(.19188 0 0 -.19188 0 5333.333)"></path><path style="fill:#512717;fill-opacity:1;fill-rule:nonzero;stroke:none" d="M15150 9309.62c40.6 51.27 80.1 94.14 121.7 139.03 41.2 44.06 84 86.49 127.6 127.77 43.6 41.41 88.3 81.43 133.2 121.14 45.9 38.56 92 76.69 139.6 113.04 94.7 73.09 191.2 143.71 293.3 205.5 101.1 63.1 209 115.7 319.4 159.7 5.3 2.2 11.4-.4 13.5-5.8 1.7-4.1.5-8.8-2.7-11.6l-.3-.3c-89.2-78.2-179.2-151.7-264.9-229.84-44.2-37.43-85.6-78.02-128.6-116.14-41.5-40.28-83.8-79.28-123.5-121.07-80.3-82.38-158-166.92-232.2-253.91-37.1-43.56-72.9-88.07-108.8-132.14-34.8-43.94-70.4-90.85-100.6-132.96l-1.5-1.96c-37.3-52.03-109.7-63.92-161.8-26.55-52 37.36-63.9 109.82-26.6 161.79 1 1.39 2.2 3.03 3.2 4.3" transform="matrix(.2109 0 0 -.2109 0 5333.333)"></path><path style="fill:#512717;fill-opacity:1;fill-rule:nonzero;stroke:none" d="M16213.3 7796.73c-35.3 0-67.5 24.05-76.2 59.97-116.2 477.33-327.5 811.14-628 992.14-377.7 227.41-773.1 131.16-777 130.14-42-10.68-84.8 14.63-95.5 56.61-10.7 41.98 14.4 84.68 56.4 95.54 18.5 4.74 459.5 114.37 894.7-146.28 339.1-203.12 575.3-570.16 702-1091.02 10.3-42.1-15.5-84.57-57.7-94.88-6.2-1.5-12.5-2.22-18.7-2.22" transform="matrix(.22232 0 0 -.22232 0 5333.333)"></path><path style="fill:#512717;fill-opacity:1;fill-rule:nonzero;stroke:none" d="M16231.6 7619.56c-25.4-17.49-57-40.36-85.1-61.44-28.5-21.88-57.1-43.76-83.3-67.44-27.3-22.75-51.8-47.29-75.1-72.07-12-12.24-21.9-25.16-33.2-37.83-8.7-13.11-19.8-26.09-27.5-39.38-8.2-13.23-17.2-26.52-22.5-40.12-2.9-6.8-7.3-13.66-9.2-20.52l-6.4-20.65c-5-13.47-6.5-30.66-9.8-45.86-1.4-14.84-3.3-30.05-2.9-43.77 1.3-27.45 5.2-52.73 24-75.54 17.8-23.05 50.2-43.52 87.1-55.94l1.5-.5c5.9-2.03 9.1-8.4 7.2-14.33-1.2-3.34-3.7-5.82-6.8-6.99-21.4-8.28-43.4-12.49-67-12.3-23.3.37-48.3 3.83-72 14.9-49.4 19.4-87.8 67.81-106 116.27-4.1 12.05-9.6 24.79-12.1 36.9l-7.1 36.78c-1.8 12.18-1.8 23.8-2.7 35.85-.9 11.94-1.5 23.93.2 36.66l3.7 37.83c1.3 12.68 5 24.17 7.6 36.41 5 24.79 13.7 46.98 22.2 69.73 36.5 89.51 92.8 161.09 152.9 224.94 30.8 31.35 62.6 61.02 96.6 87.59 34.4 27.64 67.4 50.82 109.1 75.24 54.1 31.52 123.4 13.35 155-40.74 30-51.43 14.9-116.89-33.4-150.28l-5-3.4" transform="matrix(.2157 0 0 -.2157 0 5333.333)"></path><path style="fill:#512717;fill-opacity:1;fill-rule:nonzero;stroke:none" d="M13390.4 10936.1c65.9-6 124.9-14.5 186.6-24 60.9-9.4 121.4-20.8 181.7-32.6 120.5-24.2 239.9-53.3 358-86.7 236.4-67.1 468-152.5 690.8-258.8 111.1-53.8 220.8-110.9 326.2-176.2 105.7-64.5 208.8-134 306.5-211.1 197.2-151.73 374.1-331.56 524.3-532.01 19.3-24.65 35.9-51.31 54-76.88 17.3-26.37 36.5-50.38 52.1-78.77 32.5-55.17 66.3-109.36 92.2-168.78 29.8-57.13 50-119.26 72.6-180.13 16.9-62.99 36-125.65 44-191.06 20.1-129.51 20.6-263.1-1.5-392.32-22.3-129.22-64-253.43-119.2-369.41-110.8-232.47-270.4-432.4-448.4-606.19-89.3-87.07-183.5-168.09-281.9-243.58-49.1-37.89-99.4-74.05-150.4-109.35-52-35.3-102.1-68.18-159.8-101.58l32.2 155.94c12.4-16.82 19.3-27.76 28-41.52 8.1-13.07 15.8-26.15 23-39.45 14.7-26.37 27.9-53.38 39.8-80.96 23.8-55.05 43-112.46 56-171.89 26.6-118.45 26.7-246-3.5-366.24-14.4-60.23-36.7-118.33-64.8-172.46-27.3-54.82-61.2-104.98-97.9-152.02-74.2-93.52-161.6-172.01-254-239.27-21.9-17.39-48.5-33.28-74.5-49.17l-39.1-23.67-41.1-19.41c-27.4-12.95-54.8-26.02-83.7-34.66-28.6-8.99-56.7-21.02-86.2-26.38-116.1-30.17-236.2-38.29-353.4-27.52-234.4 20.79-461 108.89-645 255.5-92.3 72.5-175.3 158.76-240.1 257.75-8.2 12.26-17.5 23.84-24.7 36.74l-21.7 38.64c-14.1 26.02-30.2 50.96-40.8 78.6l-35 81.42-26.6 84.36c-31.2 113.21-48.9 230.57-46.1 346.54-1.7 116.44 17.7 230.17 40.8 341.88 52.9 221.88 145.4 428.89 257.9 619.9 113.1 191.06 245.4 367.44 385.6 535.76l.1.06 52.2-170.28c-13.7 3.86-22.6 7.15-32.6 10.6-10.2 3.28-19.4 7.08-28.7 10.83-18.9 7.02-36.9 15.43-54.3 24.18-36 16.41-69.1 36.57-102.9 55.97-32 21.66-65.7 41.29-95.2 66.4l-45.3 35.99c-15 12.09-28.5 25.91-42.6 38.98-112.3 105.61-202.3 232.01-269.6 367.22-29.1 69.73-61.4 137.68-79.5 210.35l-15.5 53.62-7.6 26.72-5 27.35c-6.8 36.39-12.4 72.96-18.5 109.18-7.7 35.99-7.6 72.96-9.7 109.46-1.9 36.51-3.5 72.91-4.5 109.13 2.7 72.67 9.4 145 17.1 216.17.8 6.91 7 11.92 13.8 11.17 5.6-.63 10-4.72 11-9.9l.3-1.27c14.7-70.37 25.5-139.87 37.5-208.51 8.8-33.98 17.1-67.78 25-101.47 8.5-33.57 14.4-67.54 26.6-99.85 10.6-32.65 21.8-64.95 31.8-97.43l7.6-24.36 10-23.38 20.1-46.53c23.6-63.4 58.1-120.87 89.5-179.37 70.4-112.52 155-213.93 254.2-297.31 48.3-43.42 103.1-78.26 157.1-112.63 28-15.32 55.7-31.85 84.6-44.29 14.3-7.14 28.7-13.01 42.9-18.77 7-3.05 14.2-6.16 20.9-8.35l17.7-6.33 5.8-2.14c55.4-19.75 84.3-80.79 64.5-136.24-4.2-11.8-10.5-22.74-18.1-31.9v-.06c-133.7-160.6-258.9-327.77-364.1-505.42-104.7-177.53-188-366.46-234.5-561.5-19.9-97.72-37-196.36-35.2-294.37-2.8-98.24 12.6-194.93 37.9-287.69l21.5-68.82 28.6-66.05c8.3-22.57 21.8-42.55 33-63.74l17.6-31.39c5.7-10.53 13.5-19.75 20.1-29.77 52.3-80.38 120-150.52 195.8-210.06 76-59.2 159.9-109.88 250.6-144.54 90.4-35.07 185.5-57.81 281.4-66.28 95.9-9.04 192.7-2.13 283.7 21.71 23.6 3.86 44.8 13.82 67.2 20.61 22.7 6.4 43.5 16.76 64.5 26.72l31.6 14.57 29.5 18.2c19.5 12.09 39.3 23.15 59.4 39.16 80.6 58.56 153.5 124.9 212.5 199.18 28.9 37.31 55.4 76.24 75.6 117.41 21.4 40.77 37.6 83.44 48 127.32 22 87.53 22.4 179.84 2.3 270.25-10 45.14-24.8 89.77-43.5 132.9-9.2 21.6-19.6 42.79-30.9 63.11a576.45 576.45 0 0 1-17.5 29.89c-5.5 9.04-13.2 20.5-16.7 25.16l-.3.47c-34.9 47.5-24.6 114.3 22.8 149.2 3.1 2.3 6.5 4.43 9.8 6.39 46.1 26.72 96.7 59.48 144 91.79 47.8 32.99 95 66.97 140.9 102.5 92.3 70.71 180.5 146.55 263.1 227.28 165.3 161.01 309.2 343.61 405.3 545.5 47.8 100.83 82.9 206.27 101.7 313.95 18.3 107.8 17.7 217.44 1.1 324.89-6.3 54.19-22.9 106.7-36.7 159.68-19.6 51.54-36 104.17-62.2 153.64-21.8 51.02-52 98.7-80.3 147.18-13.1 24.48-31.7 47.57-47.3 71.41-16.5 23.38-31.6 47.91-49.5 70.48-274.2 370.55-657.7 653.82-1078.4 854.52-210.7 100.6-431.4 182.1-657.2 246.1-113 31.9-227.1 59.8-342.1 82.9-57.5 11.2-115.2 22.1-172.9 31-57 8.9-117 17.2-170.7 22.1l-2.3.2c-58 5.3-100.8 56.6-95.5 114.7 5.3 58.1 56.6 100.9 114.7 95.6" transform="matrix(.23154 0 0 -.23154 0 5333.333)"></path><path style="fill:#c1612b;fill-opacity:1;fill-rule:nonzero;stroke:none" d="M13393.6 10426.5s-312.3 575.8-630.4 788.8c0 0 453.6-2096.88-1408.6-3063.32 0 0 17.9 318.17-88.3 624.41 0 0-882.3-895.71-1697.63-1187.28-815.62-291.66-705.03-623.23-488.55-839.71 0 0-2191.92 247.49-3058.14 2032.95 0 0-241.76-223.87-206.31-601.07 0 0-1054.91 1088.63-757.34 2774.72 0 0-338.74-64-462.48-452.9 0 0-314.94 1291.5 622.21 2403 142.82 169.3 314.66 334.5 521.02 490.3 0 0-17.9 200.3 19.08 472.8h.23c90.28 665.6 508.1 1761 2314.44 1409.8 0 0-9.19 366.8-247.73 605.6 0 0 671.75-66.5 879.33-645.2 0 0 817.61 1060.6 2253.97 596.6 0 0-271.9-99.4-539.2-367 0 0 3487.1-888.3 2974.4-5042.5" transform="matrix(.28165 0 0 -.28165 0 5333.333)"></path><path style="fill:#a54e20;fill-opacity:1;fill-rule:nonzero;stroke:none" d="m12976.3 13853.6.4-.3c16.5-40.1 1443.5-3516-3449.12-3475.9 0 0-3171.99-25.6-3137.28 2284.9l.27.3c6.24 408.6 113.24 890.3 355.36 1458.1 0 0-608.29 78.3-759.33 686.2 163.85 194.3 361.01 383.8 597.75 562.5 0 0-20.53 229.9 21.89 542.6h.27c254.35 48.9 553.77-14.4 843.09-226.4 76.41-56.1 183.14-42.7 244.84 29.2 170.37 198.6 523.02 538.8 942.31 544.9 592.65 8.5 813.97-477.9 813.97-477.9s524.66 497.2 1382.48 509.7c596.3 8.5 966.4-386.5 1136.6-628.1 61.3-87.1 182.2-109.1 269.5-48.1 204.5 142.7 594.8 322.2 1102.3 120.9 762.8-302.7 836-1755.1-365.3-1882.6" transform="matrix(.2455 0 0 -.2455 0 5333.333)"></path><path style="fill:#a54e20;fill-opacity:1;fill-rule:nonzero;stroke:none" d="M15532.8 13649.1s552-2552-1714.2-3728.12c0 0 21.8 387.22-107.4 759.92 0 0-1073.8-1090.1-2066.1-1444.93-992.6-354.95-858-758.47-594.5-1021.93 0 0-2667.64 301.19-3721.78 2474.06 0 0-294.28-272.4-251.13-731.46 0 0-1283.84 1324.86-921.69 3376.76 0 0-412.26-77.9-562.83-551 0 0 8.59 1157.2 1065.33 1470.1 33.65 10 64.07-23.2 51.56-55.8-122.6-320.2-517.59-1587.8 177.51-3188.9 0 0 171.57 308.2 380.64 588.1 19.65 26.4 60.44 21.8 73.06-8.6 143.34-345.3 891.61-1901.96 3022.93-2744.31-7.5 14.18-226.6 422.53 148.5 581.25 376.1 159.01 2453.4 900.96 3338 2247.16 18.1 27.5 58.8 25.7 73.4-3.8 75.8-153.3 253.3-539.2 253.3-793 0 0 1291 1272.9 763.9 3866.9-7.2 35.3 29.6 63.2 61.3 46 284.1-154.5 1236.6-769.4 1297.4-2098.4 0 0-380 700.8-767.2 960" transform="matrix(.23143 0 0 -.23143 0 5333.333)"></path><path style="fill:#daa080;fill-opacity:1;fill-rule:nonzero;stroke:none" d="M6083.11 14530.6c64.59 298.8 199.84 641 478.81 892.2 276.28 248.6 652.42 373.5 1122.75 373.5 201.11 0 419.51-22.9 654.63-68.6 5.64-1.1 11.37-1.6 17.05-1.6 21.07 0 41.71 7.3 58.07 21.2 20.78 17.6 32.49 43.6 31.8 70.8-.29 13-7.93 250.4-131.57 481.9 151.13-51.1 348.07-148.6 488.56-331-165.38 119-309.7 153.3-309.7 153.3 72.43-195.3 85.86-337.7 80.27-432.9-4.21-71-63.7-123-131.52-123-10 0-20.19 1.1-30.39 3.5-261.62 60.5-495.86 87.5-705.05 87.5-1001.47 0-1435.68-617.2-1623.71-1126.8" transform="matrix(.2721 0 0 -.2721 0 5333.333)"></path><path style="fill:#daa080;fill-opacity:1;fill-rule:nonzero;stroke:none" d="M9028.52 15619.7c55.35 64.6 250.79 276.3 566.59 445.2 292.85 156.7 602.99 235.1 927.39 235.1 159.4 0 322.4-18.9 488.3-56.8-105.7-63.4-238.5-157.4-370.6-289.4-6.8-6.9-12.4-14.8-16.7-23.2-43.4 74.7 16.3 228 16.3 228-19.6.6-39.1.9-58.5.9-717.07 0-1332.29-383.8-1552.78-539.8" transform="matrix(.27418 0 0 -.27418 0 5333.333)"></path><path style="fill:#512717;fill-opacity:1;fill-rule:nonzero;stroke:none" d="M6071.18 8941.78c5.35 0 10.79-.48 16.18-1.53 27.21-5.1 50.45-22.81 62.53-47.77 438.56-903.95 1232.02-1399.26 1820.41-1655.65 403.1-175.59 768.07-266.47 985.56-309.99-53.07 107.38-52.74 199.35-37.7 266.31 47.72 212.44 276.43 389.27 699.25 540.51 793.39 283.79 1670.09 1167.22 1678.89 1176.1 21.2 21.57 52.1 30.69 81.6 23.91 29.5-6.64 53.5-28.11 63.4-56.7 65.9-190.29 86.9-382.77 92.9-511.11 676.6 392.41 1093.6 987.95 1240.3 1772.24 117.2 626.5 8.7 1145.4 7.6 1150.5-7.5 34.9 6.9 70.9 36.4 90.8 29.5 20.1 68.1 20.2 97.8.4 204.4-136.8 401.6-405.2 527.3-599.2 137.8 1583.4-298.7 2852.3-1299.4 3774.2-788.7 726.6-1652.6 954-1661.3 956.2-30.4 7.8-54.4 31.3-62.7 61.6-8.3 30.4.3 62.8 22.5 85 129.6 129.6 259.9 221.9 363.7 284-494.3 112.9-960.76 54.4-1389.4-174.9-368.5-197.1-570-453.6-572.01-456.2-19.57-25.2-51.3-37.9-82.9-32.8-31.55 5-57.89 26.7-68.68 56.8-116.36 324.4-396.42 474-595.21 541.2 120.42-225.5 127.87-456.7 128.15-469.4.67-26.5-10.74-51.8-30.97-69-20.24-17.1-47.16-24-73.17-19-764.54 148.7-1347 48.7-1731.11-297-595.3-535.9-518.75-1497.9-517.94-1507.6 2.63-30-10.35-59.4-34.41-77.5-632.05-477-1012.86-1096.3-1131.8-1840.7-46.83-293-41.58-548.9-25.88-726.5 166.87 215.4 390.28 260.4 402.54 262.7 28.21 5.3 57.28-3.5 77.75-23.7 20.43-20.2 29.64-49.2 24.68-77.5-150.49-852.5 57.94-1545.92 259.3-1977.47 117.36-251.61 246.13-446.24 340.82-573.2 49.92 272.62 216.63 430.41 225.51 438.61a87.576 87.576 0 0 0 59.51 23.34m3083.37-2224.61c-3.24 0-6.54.19-9.83.57-23.1 2.58-573.21 67.16-1239.24 356.43-590.43 256.49-1378.22 743.21-1850.62 1619.96-57.32-89.73-123.09-239.5-104.52-437.62 3.48-36.98-16.75-72.11-50.5-87.67-33.74-15.51-73.59-8.06-99.46 18.61-11.26 11.6-278.68 290.57-510.59 784.97-201.55 429.79-409.97 1105.58-299.58 1936.78-92.4-52-211.96-153.7-273.35-346.7-11.88-37.4-47.15-61.9-86.38-60.9-39.2 1.3-72.72 28.6-82.01 66.7-4.48 18.4-108.53 456-15.53 1047.3 84.55 537.5 355.37 1305.3 1162.87 1931.6-9.83 215.6-8.97 1074.7 577.31 1603.3 406.59 366.6 1000.02 487.8 1765.14 360.7-20.91 117.3-74.5 305-211.05 441.5-26.11 26.1-33.03 65.9-17.18 99.3 15.8 33.4 50.97 53.4 87.67 49.7 27.68-2.8 634.96-68.7 903.43-578.3 99.56 101.7 276.53 259.1 526.24 393.9 368.22 198.6 970.23 382.7 1747.73 131.6 35.5-11.5 59.8-44.3 60.6-81.6.7-37.4-22.4-71.1-57.5-83.9-2-.8-190.4-71.8-401.7-248.8 289.9-98.2 950.4-367.4 1580.4-945.7 482.9-443.2 845.5-976.4 1077.6-1584.5 289.3-757.8 375.3-1633.7 255.6-2603.3-4.7-37.8-33.2-68.2-70.6-75.2-37.3-7.1-75 10.7-93.1 44.2-2.5 4.5-203.6 372.3-438.8 618 22.1-220.5 34.4-574.3-39.9-975.8-113.3-612.54-458.5-1451.77-1459.7-1971.33-27.8-14.51-61.3-12.94-87.8 4.15-26.3 17.04-41.6 46.96-39.8 78.32.1 2.53 10.8 219.69-45.4 460.28-262.5-248.9-965.4-874.02-1638.65-1114.86-444.34-158.93-564.71-312.9-587.42-414.03-19.57-87.15 23.33-184.13 127.48-288.27 26.29-26.3 33.07-66.34 16.94-99.85-14.7-30.54-45.49-49.54-78.8-49.54" transform="matrix(.27937 0 0 -.27937 0 5333.333)"></path><path style="fill:#f49a2b;fill-opacity:1;fill-rule:nonzero;stroke:none" d="m13063.7 13811.7.3-.2c15.7-39.8 1377.2-3497.5-3460.55-3387.8 0 0-3137.23 20.1-3069.58 2304.3l.28.3c11.91 404 124.56 878.8 372.11 1437 0 0-725.05 103.9-768.54 883.8-46.43 832.6 863.73 1250.9 1618.92 542.1 0 0 463.81 662.1 1050.12 662.1 586.26 0 796.69-584.6 796.69-584.6s527.35 584.6 1375.75 584.6 1339.7-869 1339.7-869 382.9 594.1 1132.9 283.8c750-310.2 801.6-1747.5-388.1-1856.4" transform="matrix(.24065 0 0 -.24065 0 5333.333)"></path><path style="fill:#fdf2e8;fill-opacity:1;fill-rule:nonzero;stroke:none" d="M12761.9 14851.5c0-800-632.6-1448.5-1413-1448.5s-1413.05 648.5-1413.05 1448.5S10568.5 16300 11348.9 16300s1413-648.5 1413-1448.5" transform="matrix(.2026 0 0 -.2026 0 5333.333)"></path><path style="fill:#f08d8f;fill-opacity:1;fill-rule:nonzero;stroke:none" d="M14160.1 15876.1c-79.3 147.6-169.1 320.2-212.9 423.9 104.3-154.7 202.7-344 284.5-517.5-28 26.4-52.5 57.9-71.6 93.6" transform="matrix(.2176 0 0 -.2176 0 5333.333)"></path><path style="fill:#f08d8f;fill-opacity:1;fill-rule:nonzero;stroke:none" d="M13472.8 15745.6s-43.1 449.3 300.1 547c9.5 2.8 19.4 5.3 28.6 7.4-278.9-103.6-328.7-554.4-328.7-554.4" transform="matrix(.22527 0 0 -.22527 0 5333.333)"></path><path style="fill:#f08d8f;fill-opacity:1;fill-rule:nonzero;stroke:none" d="M14393 16300c25.6-22.3 44.5-45.8 55-68.3-13.2 23.5-31.8 46.6-55 68.3" transform="matrix(.224 0 0 -.224 0 5333.333)"></path><path style="fill:#f08d8f;fill-opacity:1;fill-rule:nonzero;stroke:none" d="M14220.6 15261.9c-25.7-13.3-52.3-23.2-79.4-29.7-58.7 120.5-128.9 254.6-189.1 367.1-176.1 328.4 152.3 700.7 498.4 563.5 5.5-2.2 8.3-3.4 8.3-3.4 62.7-99.8 337.7-599.7-238.2-897.5" transform="matrix(.22417 0 0 -.22417 0 5333.333)"></path><path style="fill:#f08d8f;fill-opacity:1;fill-rule:nonzero;stroke:none" d="M7425.91 15719.4c-46.29-73.3-96.95-157.7-143.54-237.7-68.72 15.3-134.96 48.8-192 101.8-207.65 193.9-143.53 500.6-110.7 612.5-7.38-34.6-12.58-71.5-16.6-109.1 0 0 227.91 213.1 481.26 143.5 253.58-70 121.45-290.5-18.42-511" transform="matrix(.22583 0 0 -.22583 0 5333.333)"></path><path style="fill:#f08d8f;fill-opacity:1;fill-rule:nonzero;stroke:none" d="M7851.57 15875.3c-28.09-68.9-71.05-126.7-123.29-171.9l85.26 134.8s87.53 243.2 68.97 461.8c3.39-9.9 6.48-20.1 9.28-30.3 37.07-135.7 8.92-274.5-40.22-394.4" transform="matrix(.22408 0 0 -.22408 0 5333.333)"></path><path style="fill:#ed7170;fill-opacity:1;fill-rule:nonzero;stroke:none" d="m7593.4 15392-82.87-131c-104.26-90.4-246.34-128-378.18-98.2 45.63 78.4 95.24 161 140.58 232.7 136.99 216 266.4 432 18.04 500.5-248.13 68.2-471.34-140.5-471.34-140.5 3.93 36.8 9.02 72.9 16.25 106.9 0 .6 0 1.2.29 1.5 7.52 25.5 13.24 40.2 13.24 40.2 210.25 395.9 696.57 259.5 811.01-63.4 18.04-212.3-67.02-448.7-67.02-448.7" transform="matrix(.23058 0 0 -.23058 0 5333.333)"></path><path style="fill:#512717;fill-opacity:1;fill-rule:nonzero;stroke:none" d="M7660.42 15840.7c-114.44 322.9-600.76 459.3-811.01 63.4 0 0-5.72-14.7-13.24-40.2 47.18 223.1 179.61 370 562.93 299.2 183.2-34 248.08-172.2 261.32-322.4" transform="matrix(.23058 0 0 -.23058 0 5333.333)"></path><path style="fill:#ee7c2f;fill-opacity:1;fill-rule:nonzero;stroke:none" d="m8021.87 16300-323.39-509.8-263.11 84.7s83.44 151.1 182.57 320.2c140.82-31.8 292.58 8.4 403.93 104.9" transform="matrix(.21588 0 0 -.21588 0 5333.333)"></path><path style="fill:#ed7170;fill-opacity:1;fill-rule:nonzero;stroke:none" d="M14339.7 16026.3s-2.7 1.3-8.2 3.5c-343.2 136-669-233.3-494.3-558.9 59.8-111.6 129.3-244.6 187.5-364.1-115.5-27.6-237.7 6.1-323.5 87.3-78.8 167-173.5 349.4-274 498.3 0 0 49.6 449.2 327.6 552.4 225.2 55.2 411.5-9.5 506.2-90.3.9-.3 1.5-1 2.1-1.6 23-21.4 41.4-44.4 54.6-67.7 7-14.4 10.7-28.5 10.7-41.4 0 0 4.3-6.1 11.3-17.5" transform="matrix(.22603 0 0 -.22603 0 5333.333)"></path><path style="fill:#512717;fill-opacity:1;fill-rule:nonzero;stroke:none" d="m13739.3 16226.5 1.2.6c199 72.9 397.6 7.7 504.4-90.8-94.6 80.7-280.6 145.3-505.6 90.2" transform="matrix(.22629 0 0 -.22629 0 5333.333)"></path><path style="fill:#512717;fill-opacity:1;fill-rule:nonzero;stroke:none" d="M14519.7 16258c0 13.1-3.7 27.4-10.8 42 11.4-19.9 18.9-39.8 22.3-59.7-7.2 11.6-11.5 17.7-11.5 17.7" transform="matrix(.22305 0 0 -.22305 0 5333.333)"></path><path style="fill:#ee7c2f;fill-opacity:1;fill-rule:nonzero;stroke:none" d="M15742.4 16175.1s-154.2-283.7-821.5-400.1c0 0-89.4 242.3-222.5 525 92-87.1 223.2-123.3 347.1-93.7 5.2-10.5 10.2-21 15.1-31.2 0 0 150.6-240.3 681.8 0" transform="matrix(.2107 0 0 -.2107 0 5333.333)"></path><path style="fill:#ee7c2f;fill-opacity:1;fill-rule:nonzero;stroke:none" d="M10620.7 11527.9s-3469.55 22.2-3394.73 2548.3l.3.3s465.45-2090.8 3405.63-2090.8c2940.3 0 4388.5 1261.4 3316.1 4314.3 11.9-20.6 395.5-683.7 499.5-1025.3l.3-.3c17.3-44 1523.1-3867.9-3827.1-3746.5" transform="matrix(.2176 0 0 -.2176 0 5333.333)"></path><path style="fill:#fbd7aa;fill-opacity:1;fill-rule:nonzero;stroke:none" d="M14015.8 14956.5c-76.6 261.7-249.5 488.6-499 591.9-139.7 57.8-263.6 81.3-372.9 81.3-282.9 0-467.2-158.1-571.3-289-28.8-36.3-70.6-54.2-112.5-54.2-43.8 0-87.8 19.6-117.4 57.9-215.2 279.1-697 794.5-1321.3 794.5-631.5 0-1057.93-393.7-1255.7-599.3-22.87-23.8-52.51-35-81.81-35-41.82 0-83.03 22.8-103.27 65.1-101.32 211.1-333.99 567.6-750.5 567.6-15.09 0-29.97-.5-44.79-1.5-13.86-88-129.16-219.7-295.95-327.6-140.13-90.7-280.59-141.4-372.9-141.4-25.11 0-46.69 3.8-63.75 11.5-34.27-42.1-64.97-82.2-91.75-117.6-30.25-40-75.77-60.5-121.84-60.5-35.79 0-71.85 12.3-101.49 37.5-272.58 231.1-539.35 327.5-774.87 327.5-236.24 0-440.95-97.1-588.06-252.8 68.16 138.9 177.98 248.8 322.07 316 96.62 45.1 201.3 67.1 309.55 67.1 249.21 0 517.61-116.5 751.39-335.9 19.17-17.9 44.34-27.7 70.34-27.7 3.41 0 6.88.2 10.29.5 29.58 3 56.36 18.8 73.47 43.1 4.36 6.2 445.36 624.5 975.72 624.5 510.39 0 699.72-500.9 707.44-522 12.24-33.9 41.32-59 76.66-65.9 6.65-1.3 13.31-1.9 19.9-1.9 28.69 0 56.42 12 75.99 33.8 5.03 5.6 511.26 556 1312.46 556 784.6 0 1258.2-816.8 1262.8-824.9 17.6-31.1 50.3-50.7 86-51.9h2.3c34.5 0 67.7 17.2 86.9 46.5 11.1 16.8 222.3 329.9 635.2 329.9 112.6 0 240.3-23.3 382.9-82.3 277.3-114.7 464.2-423.2 479.7-760.8" transform="matrix(.23846 0 0 -.23846 0 5333.333)"></path><path style="fill:#512717;fill-opacity:1;fill-rule:nonzero;stroke:none" d="M11607.1 16283.1c-131.4 14.6-264.3 16.9-394.7-4.7-166.3-27.5-378.3-92.7-380.2-246.7-1.9-168.4 142.5-287.8 290.7-384 126.8-82.3 285.4-100.6 428.3-51.5 170.7 58.4 398.5 165.3 434.8 327.2 47.4 211.4-92.6 328-378.9 359.7" transform="matrix(.19997 0 0 -.19997 0 5333.333)"></path><path style="fill:#b9a9a2;fill-opacity:1;fill-rule:nonzero;stroke:none" d="M11433 16120c-141.6 0-252.9 33.9-254.5 79.8-1.7 49.4 123.8 93.9 280.6 99.6 11 .4 21.9.6 32.5.6 141.7 0 252.9-33.9 254.5-79.8 1.8-49.3-123.8-93.9-280.5-99.6-11.1-.4-21.9-.6-32.6-.6" transform="matrix(.19834 0 0 -.19834 0 5333.333)"></path><path style="fill:#512717;fill-opacity:1;fill-rule:nonzero;stroke:none" d="M10769.7 15958.7c86-217.2 209.9-317.3 417.3-304.3 251 .1 346.2 267 351.3 486.6 11.5 159 240.7 156.7 249.6-2.1 14.8-352.6-213.4-730.8-604.8-687-279.7 17-482.4 220.7-413.4 506.8" transform="matrix(.19493 0 0 -.19493 0 5333.333)"></path><path style="fill:#512717;fill-opacity:1;fill-rule:nonzero;stroke:none" d="M11848.1 16155.3c-1.6-315.9 182.8-393.6 470.5-388.3 250.6 7.6 382.1 131.5 442.4 378.8 70.4-248.8-57.5-480.5-305.4-557.3-232.8-64.5-522.2-72.2-707.6 111.6-99.9 99.1-145 233.9-152.5 368.9-2 47-2.1 87.7 5.3 135.8 9.4 56.8 62.9 95.2 119.7 85.8 30.3-4.9 55.3-22.4 70.7-46.3l56.9-89" transform="matrix(.1939 0 0 -.1939 0 5333.333)"></path><path style="fill:#512717;fill-opacity:1;fill-rule:nonzero;stroke:none" d="M11313.6 15810.2s85.5-936.2 561.8-962.2c476.4-26 589.1 979.6 589.1 979.6s-593.7-82.4-593.7 472.4c0 0-.5-546.3-557.2-489.8" transform="matrix(.19146 0 0 -.19146 0 5333.333)"></path><path style="fill:#ef879f;fill-opacity:1;fill-rule:nonzero;stroke:none" d="M12186.6 15617s-26.1 438.3 276 560.6c302.3 122.4 461.3-111.9 461.3-111.9s-214.4-761.1-737.3-448.7" transform="matrix(.18314 0 0 -.18314 0 5333.333)"></path><path style="fill:#512717;fill-opacity:1;fill-rule:nonzero;stroke:none" d="M11362.2 15595.3c45.1-274.7 174.3-723 440.8-737.6 258.9-13.5 401.6 469.6 453.6 754.8-112.9 6-272.2 35.8-395.2 143.1-26.5 23-50 48.4-70.7 76-23.3-35.5-51.8-69.8-86.2-100.9-90.9-82.1-205.6-127.4-342.3-135.4zm454.3-953.5c-8.4 0-16.7.2-25.3.7-559.8 30.5-655.8 1011.8-659.6 1053.6-2.9 32.1 8.6 63.7 31.5 86.4 22.9 22.7 54.6 33.7 86.7 30.6 133.2-13.5 237.2 12.3 309.2 76.7 122.3 109.4 125.6 301.3 125.6 303.2.6 59.2 48.8 107 107.8 107h.6c59.3-.3 107.3-48.2 107.3-107.5 0-124 33.3-213.6 102-273.7 134.2-117.7 363.3-89 365.5-88.8 32.9 4.4 66.1-6.7 89.8-29.9 23.7-23.2 35.5-56 31.9-89-12.5-110.8-135.7-1069.3-673-1069.3" transform="matrix(.19274 0 0 -.19274 0 5333.333)"></path><path style="fill:#512717;fill-opacity:1;fill-rule:nonzero;stroke:none" d="M7138.24 14883.6c47.94 97.9 98.95 185.5 154.08 274.3 55.54 87.6 113.11 173.9 175.21 256.9l23.27 31.1c7.89 10.5 15.9 21.1 21.24 28.9 12.42 16.9 23.73 34.6 33.72 52.9 20.02 36.8 36.32 75.7 47 116.2 21.88 81 21.42 167.1-.52 247.5-22.17 82-65.75 155-128.02 197-31.22 21.5-67.49 37.1-108.23 45.2-39.64 8.8-86.65 9-130.46 8.1-88.21-4.6-167.26-35.1-228.89-92.2-62.91-56.5-109.74-140.9-145.37-237.3l-.23-.7c-1.46-3.9-5.75-5.8-9.58-4.4-2.38.8-4.01 2.8-4.64 5.1-14.16 52.8-13.23 108-2.79 162.8 10.91 54.6 32.91 109.8 69.82 156.6 36.33 46.4 83.91 87.7 138.52 112 53.45 27.7 111.19 41.1 167.89 49.6 28.56 4.9 56.41 3.8 84.73 5.8 14.05.9 28.38 1 43.24-.1 14.68-.4 29.42-1.9 44.33-4 59.26-7.6 120.42-26.2 174.57-59.5 54.73-32.2 100.8-77.8 136.67-127.3 35.86-50.2 61.69-103.3 80.84-159.8 38.71-112.9 42.48-236.5 16.77-352.2-13-57.9-33.02-114.3-60.59-166.9-13.52-26.5-28.9-51.9-45.9-76.3l-22.98-32.9-21.47-30.1c-56.7-81-111.95-163-163.89-247.1-26.12-41.9-51.94-84-76.55-126.6-24.43-41.9-49.85-86.1-70.74-126.3l-1.1-2.1c-27.1-52.2-91.29-72.5-143.46-45.4-51.3 26.7-71.79 89.5-46.49 141.2" transform="matrix(.22975 0 0 -.22975 0 5333.333)"></path><path style="fill:#512717;fill-opacity:1;fill-rule:nonzero;stroke:none" d="M13769.7 14627.5c-75.2 185.5-158.1 373.6-246.4 554.7-45.2 90.5-91 180.4-141 267l-38.3 64.3-9.8 16.2c-4.8 8-9.5 16.1-13.7 24.4-8.6 16.6-15.4 33.9-20.9 51.6-10.9 35.4-15.7 72.3-14.5 108.7.2 8.5 1 19.3 1.8 26l2.6 21.5c1.9 14.3 4.3 28.6 6.7 42.9 20.7 113.2 64.2 229.4 148.2 322.7 83.7 92.9 206.2 148.6 320.7 159.1 111.4 13.4 233.3 1 335.2-55.1 102-54.3 177.6-149.3 202.2-253.2.2-.9-.3-1.7-1.2-1.9-.6-.2-1.3.1-1.6.5l-.1.2c-65 82.1-149.3 138.5-238.1 163.4-88.8 25.7-181.9 20.9-273.2 1.7-89.9-16.8-163.3-60.6-214.1-125.2-49.8-65.7-78.2-151.5-89.4-241.3-1.1-11.3-2.4-22.6-3.2-33.9l-1-17c-.4-6.2-.3-8.3-.2-12.7.6-15.2 3.7-30 9-43.7 2.6-6.8 5.9-13.3 9.5-19.5 1.8-3.1 3.8-6.1 5.7-9.1l10.9-16.5 43.7-67.1c56.9-90.1 109.3-182.1 157.7-275.8 49-93.4 94.3-188.3 136.7-284.3 42.8-96.5 81.9-192.3 118.3-293.4 20.2-56.1-9-117.9-65-138-54.6-19.7-114.7 7.4-136.4 60.7l-.8 2.1" transform="matrix(.22664 0 0 -.22664 0 5333.333)"></path><path style="fill:#512717;fill-opacity:1;fill-rule:nonzero;stroke:none" d="M6919.3 15796.8c-106.91 0-210.28-21.8-305.7-66.3-266.11-124.1-413.93-395.6-395.49-726.2 38.16-682.4 653.53-782.6 679.71-786.6 31.25-4.7 58.7-23.7 73.88-51.4 15.19-27.7 16.79-60.9 3.98-89.8-450.88-1015.9-481.8-1837.1-91.94-2440.9 723.44-1120.3 2668.42-1145.5 2687.97-1145.6 1610.39-36.6 2686.19 319.7 3198.79 1058.6 644 928.1 160.4 2166.8 155.5 2179.2-11.9 29.7-9.1 63.3 7.6 90.5 16.7 27.3 45.3 45.1 77.1 48 652.4 59.5 791.5 518.9 821.1 713.6 61.1 402.4-138.3 807.4-463.8 942.2-657.2 271.9-991.6-223.4-1005.5-244.6-19.3-29.5-53.2-46.6-88.1-45.9-35.3 1.2-67.5 20.5-84.9 51.2-4.6 8.1-472.3 814.7-1247.1 814.7-791.3 0-1291.23-543.6-1296.2-549.1-23.8-26.4-59.75-38.4-94.7-31.5-34.9 6.9-63.62 31.6-75.71 65.1-7.62 20.8-194.6 515.5-698.65 515.5-523.77 0-959.29-610.6-963.6-616.8-16.9-24-43.35-39.5-72.56-42.5-29.15-2.9-58.2 6.8-79.63 26.9-230.87 216.6-495.93 331.7-742.05 331.7M9792.54 10285c-73.56 0-148 .9-223.76 2.6-82.66.5-2072.92 26.9-2855.12 1238.1-414.76 642.3-404.66 1490.8 29.65 2523.6-228.33 73.7-691.47 301.8-727.36 943.6-22.92 410.2 173.28 763.1 512.06 921.1 364.45 170 811.63 82 1188.51-227.9 156.27 189.8 561.26 613.9 1060.62 613.9 466.84 0 717.59-323.3 824.88-514 200.51 175.4 673.88 514 1340.38 514 706.1 0 1171.4-548.8 1346.3-798 169.6 172.4 560.8 453.6 1156.7 207.1 415.8-172 662.5-659.7 586.6-1159.6-70.4-463.8-393.9-781-875.3-867.7 113.5-352.8 370.3-1396.6-218.9-2247.3-528.6-763.2-1586.3-1149.5-3145.26-1149.5" transform="matrix(.24146 0 0 -.24146 0 5333.333)"></path><path style="fill:#512717;fill-opacity:1;fill-rule:nonzero;stroke:none" d="M12968.5 15541.9c5.7-420.9-285.2-766.1-649.6-771-364.5-4.9-664.6 332.3-670.3 753.1-5.6 421 285.2 766.2 649.7 771.1 364.5 4.9 664.6-332.3 670.2-753.2" transform="matrix(.21472 0 0 -.21472 0 5333.333)"></path><path style="fill:#fff;fill-opacity:1;fill-rule:nonzero;stroke:none" d="M12914.4 16024.3c2-152.9-94.3-278.3-215.1-279.9-120.8-1.6-220.5 121-222.5 274-2.1 153 94.2 278.3 215 280 120.9 1.6 220.5-121.1 222.6-274.1" transform="matrix(.21116 0 0 -.21116 0 5333.333)"></path><path style="fill:#745245;fill-opacity:1;fill-rule:nonzero;stroke:none" d="M12725.1 15911.2c-68.9 0-125.8 85.9-127.2 192.7-1.5 107.4 53.7 195.1 123 196.1h1.1c69 0 125.8-85.9 127.3-192.7 1.4-107.3-53.7-195.1-123.1-196.1h-1.1" transform="matrix(.20362 0 0 -.20362 0 5333.333)"></path><path style="fill:#512717;fill-opacity:1;fill-rule:nonzero;stroke:none" d="M9890.89 15657.1c4.8-356.9-241.85-649.7-550.95-653.8-309.04-4.2-563.55 281.8-568.36 638.7-4.8 356.9 241.84 649.6 550.95 653.8 309.11 4.2 563.55-281.8 568.36-638.7" transform="matrix(.2137 0 0 -.2137 0 5333.333)"></path><path style="fill:#fff;fill-opacity:1;fill-rule:nonzero;stroke:none" d="M9801.17 16066.9c1.78-129.5-79.73-235.5-181.94-236.9-102.21-1.3-186.44 102.4-188.15 231.9-1.77 129.3 79.68 235.3 181.89 236.7 102.2 1.4 186.43-102.4 188.2-231.7" transform="matrix(.21069 0 0 -.21069 0 5333.333)"></path><path style="fill:#745245;fill-opacity:1;fill-rule:nonzero;stroke:none" d="M9545.01 15973c-57.88 0-105.71 72.3-106.89 162.1-1.24 90.3 45.03 164.1 103.43 164.9h.98c57.95 0 105.72-72.2 106.89-162 1.24-90.3-45.09-164.2-103.43-165h-.98" transform="matrix(.20432 0 0 -.20432 0 5333.333)"></path></svg>